<?xml version="1.0" encoding="UTF-8"?>
<svg width="900" height="600" viewBox="0 0 420 380" xmlns="http://www.w3.org/2000/svg">
  
  <defs>
    <linearGradient id="gold" x1="0%" y1="0%" x2="100%" y2="100%">
      <stop offset="0%" stop-color="#F7E7A1"/>
      <stop offset="60%" stop-color="#CBA24E"/>
      <stop offset="100%" stop-color="#F7E7A1"/>
    </linearGradient>
    <filter id="soft-glow" x="-50%" y="-50%" width="200%" height="200%">
      <feGaussianBlur stdDeviation="2" result="coloredBlur"/>
      <feMerge>
        <feMergeNode in="coloredBlur"/>
        <feMergeNode in="SourceGraphic"/>
      </feMerge>
    </filter>
  </defs>

  <g filter="url(#soft-glow)">
    
  <!-- monitor body -->
  <rect x="80" y="50" rx="14" ry="14" width="260" height="180" fill="none" stroke="url(#gold)" stroke-width="6"/>
  <!-- monitor base -->
  <path d="M180 250 h60 c10 0 14 16 14 16 h-88 c0 0 4-16 14-16z" fill="none" stroke="url(#gold)" stroke-width="6"/>
  <line x1="140" y1="230" x2="280" y2="230" stroke="url(#gold)" stroke-width="6"/>
  <!-- chip + gear center -->
  <circle cx="210" cy="140" r="22" fill="none" stroke="url(#gold)" stroke-width="6"/>
  <circle cx="210" cy="140" r="6" fill="url(#gold)"/>
  <!-- simple cog spokes -->
  <g stroke="url(#gold)" stroke-width="6" stroke-linecap="round">
    <line x1="210" y1="108" x2="210" y2="118"/>
    <line x1="210" y1="162" x2="210" y2="172"/>
    <line x1="178" y1="140" x2="188" y2="140"/>
    <line x1="232" y1="140" x2="242" y2="140"/>
  </g>
  <!-- circuit lines and nodes -->
  <g stroke="url(#gold)" stroke-width="4" fill="none" stroke-linecap="round">
    <path d="M210 118 L130 95" />
    <path d="M210 118 L290 95" />
    <path d="M210 162 L130 185" />
    <path d="M210 162 L290 185" />
  </g>
  <g fill="url(#gold)">
    <circle cx="130" cy="95" r="6"/>
    <circle cx="290" cy="95" r="6"/>
    <circle cx="130" cy="185" r="6"/>
    <circle cx="290" cy="185" r="6"/>
  </g>

    
  <rect x="40" y="300" rx="8" ry="8" width="340" height="56" fill="none" stroke="url(#gold)" stroke-width="3"/>
  <text x="62" y="338" font-family="Montserrat, Poppins, Arial, sans-serif" font-size="36" letter-spacing="2" fill="url(#gold)">JACK PACHÓN</text>

  </g>
</svg>